<?xml version="1.0" standalone="no"?>
<svg viewBox="0 0 200 200" xmlns="http://www.w3.org/2000/svg">
  <path fill="#FF0000" d="M43,-70.4C56.6,-66.6,69.2,-56.9,74,-44.2C78.8,-31.5,75.9,-15.7,71.3,-2.6C66.8,10.5,60.6,21,56,34C51.4,47.1,48.3,62.7,39.2,68.6C30.1,74.6,15.1,70.9,-0.7,72.1C-16.4,73.2,-32.8,79.2,-43.1,73.9C-53.4,68.7,-57.7,52.2,-62.1,38C-66.6,23.8,-71.4,11.9,-74.3,-1.7C-77.3,-15.3,-78.5,-30.7,-71.1,-39.8C-63.7,-49,-47.7,-51.9,-34.4,-55.9C-21.1,-59.9,-10.6,-65,2.1,-68.6C14.7,-72.1,29.3,-74.2,43,-70.4Z" transform="translate(100 100)" />
</svg>
